<?xml version="1.0" encoding="UTF-8" standalone="no"?>
<svg
   xmlns:dc="http://purl.org/dc/elements/1.1/"
   xmlns:cc="http://creativecommons.org/ns#"
   xmlns:rdf="http://www.w3.org/1999/02/22-rdf-syntax-ns#"
   xmlns:svg="http://www.w3.org/2000/svg"
   xmlns="http://www.w3.org/2000/svg"
   xmlns:sodipodi="http://sodipodi.sourceforge.net/DTD/sodipodi-0.dtd"
   xmlns:inkscape="http://www.inkscape.org/namespaces/inkscape"
   viewBox="0 0 120 120"
   height="120"
   width="120"
   version="1.1"
   id="svg3366"
   inkscape:version="0.91 r13725"
   sodipodi:docname="1.svg">
  <sodipodi:namedview
     pagecolor="#ffffff"
     bordercolor="#666666"
     borderopacity="1"
     objecttolerance="10"
     gridtolerance="10"
     guidetolerance="10"
     inkscape:pageopacity="0"
     inkscape:pageshadow="2"
     inkscape:window-width="1366"
     inkscape:window-height="715"
     id="namedview6"
     showgrid="false"
     fit-margin-top="0"
     fit-margin-left="0"
     fit-margin-right="0"
     fit-margin-bottom="0"
     inkscape:zoom="8.1388372"
     inkscape:cx="69.95176"
     inkscape:cy="2.0657327"
     inkscape:window-x="272"
     inkscape:window-y="1072"
     inkscape:window-maximized="1"
     inkscape:current-layer="svg3366" />
  <metadata
     id="metadata3372">
    <rdf:RDF>
      <cc:Work
         rdf:about="">
        <dc:format>image/svg+xml</dc:format>
        <dc:type
           rdf:resource="http://purl.org/dc/dcmitype/StillImage" />
        <dc:title></dc:title>
      </cc:Work>
    </rdf:RDF>
  </metadata>
  <defs
     id="defs3370" />
  <path
     id="path3376"
     d="m 3.4334811,112.48637 0,-7.50001 18.2812509,0 18.28125,0 0,7.50001 0,7.5 -18.28125,0 -18.2812509,0 0,-7.5 z m 32.8125009,0 0,-3.75 -14.53125,0 -14.5312509,0 0,3.75 0,3.75 14.5312509,0 14.53125,0 0,-3.75 z m 5.625,0 0,-7.50001 18.28125,0 18.28125,0 0,7.50001 0,7.5 -18.28125,0 -18.28125,0 0,-7.5 z m 32.8125,0 0,-3.75 -14.53125,0 -14.53125,0 0,3.75 0,3.75 14.53125,0 14.53125,0 0,-3.75 z m 5.625,0 0,-7.50001 18.28125,0 18.281238,0 0,7.50001 0,7.5 -18.281238,0 -18.28125,0 0,-7.5 z m 32.812488,0 0,-3.75 -14.531238,0 -14.53125,0 0,3.75 0,3.75 14.53125,0 14.531238,0 0,-3.75 z M 3.4334811,101.23636 c 0,-1.696425 0.625,-1.875 6.5625008,-1.875 l 6.5625001,0 0,-3.75 0,-3.75 -6.5625001,0 c -5.9375008,0 -6.5625008,-0.178571 -6.5625008,-1.875 0,-1.736111 0.625,-1.875 8.4375009,-1.875 l 8.4375,0 0,7.5 0,7.49999 -8.4375,0 c -7.8125009,0 -8.4375009,-0.13889 -8.4375009,-1.87499 z m 18.7500009,-5.625 0,-7.5 18.28125,0 18.28125,0 0,7.5 0,7.49999 -18.28125,0 -18.28125,0 0,-7.49999 z m 32.8125,0 0,-3.75 -14.53125,0 -14.53125,0 0,3.75 0,3.75 14.53125,0 14.53125,0 0,-3.75 z m 5.625,0 0,-7.5 18.28125,0 18.28125,0 0,7.5 0,7.49999 -18.28125,0 -18.28125,0 0,-7.49999 z m 32.8125,0 0,-3.75 -14.53125,0 -14.53125,0 0,3.75 0,3.75 14.53125,0 14.53125,0 0,-3.75 z m 5.625,0 0,-7.5 8.906238,0 c 8.28125,0 8.90625,0.131579 8.90625,1.875 0,1.708333 -0.625,1.875 -7.03125,1.875 l -7.03124,0 0,3.75 0,3.75 7.03124,0 c 6.40625,0 7.03125,0.166669 7.03125,1.875 0,1.74341 -0.625,1.87499 -8.90625,1.87499 l -8.906238,0 0,-7.49999 z m -95.6250009,-16.875 0,-7.5 18.2812509,0 18.28125,0 0,7.5 0,7.5 -18.28125,0 -18.2812509,0 0,-7.5 z m 32.8125009,0 0,-3.75 -14.53125,0 -14.5312509,0 0,3.75 0,3.75 14.5312509,0 14.53125,0 0,-3.75 z m 5.625,0 0,-7.5 18.28125,0 18.28125,0 0,7.5 0,7.5 -18.28125,0 -18.28125,0 0,-7.5 z m 32.8125,0 0,-3.75 -14.53125,0 -14.53125,0 0,3.75 0,3.75 14.53125,0 14.53125,0 0,-3.75 z m 5.625,0 0,-7.5 18.28125,0 18.281238,0 0,7.5 0,7.5 -18.281238,0 -18.28125,0 0,-7.5 z m 32.812488,0 0,-3.75 -14.531238,0 -14.53125,0 0,3.75 0,3.75 14.53125,0 14.531238,0 0,-3.75 z M 3.4334811,67.48636 c 0,-1.696429 0.625,-1.875 6.5625008,-1.875 l 6.5625001,0 0,-3.75 0,-3.75 -6.5625001,0 c -5.9375008,0 -6.5625008,-0.178571 -6.5625008,-1.875 0,-1.736111 0.625,-1.875 8.4375009,-1.875 l 8.4375,0 0,7.5 0,7.5 -8.4375,0 c -7.8125009,0 -8.4375009,-0.138889 -8.4375009,-1.875 z m 18.7500009,-5.625 0,-7.5 18.28125,0 18.28125,0 0,7.5 0,7.5 -18.28125,0 -18.28125,0 0,-7.5 z m 32.8125,0 0,-3.75 -14.53125,0 -14.53125,0 0,3.75 0,3.75 14.53125,0 14.53125,0 0,-3.75 z m 5.625,0 0,-7.5 18.28125,0 18.28125,0 0,7.5 0,7.5 -18.28125,0 -18.28125,0 0,-7.5 z m 32.8125,0 0,-3.75 -14.53125,0 -14.53125,0 0,3.75 0,3.75 14.53125,0 14.53125,0 0,-3.75 z m 5.625,0 0,-7.5 8.906238,0 c 8.28125,0 8.90625,0.131579 8.90625,1.875 0,1.708333 -0.625,1.875 -7.03125,1.875 l -7.03124,0 0,3.75 0,3.75 7.03124,0 c 6.40625,0 7.03125,0.166667 7.03125,1.875 0,1.743421 -0.625,1.875 -8.90625,1.875 l -8.906238,0 0,-7.5 z m -95.6250009,-16.875 0,-7.5 18.2812509,0 18.28125,0 0,7.5 0,7.5 -18.28125,0 -18.2812509,0 0,-7.5 z m 32.8125009,0 0,-3.75 -14.53125,0 -14.5312509,0 0,3.75 0,3.75 14.5312509,0 14.53125,0 0,-3.75 z m 5.625,0 0,-7.5 18.28125,0 18.28125,0 0,7.5 0,7.5 -18.28125,0 -18.28125,0 0,-7.5 z m 32.8125,0 0,-3.75 -14.53125,0 -14.53125,0 0,3.75 0,3.75 14.53125,0 14.53125,0 0,-3.75 z m -71.2500009,-11.25 c 0,-1.696429 0.625,-1.875 6.5625008,-1.875 l 6.5625001,0 0,-3.75 0,-3.75 -6.5625001,0 c -5.9375008,0 -6.5625008,-0.178571 -6.5625008,-1.875 0,-1.736111 0.625,-1.875 8.4375009,-1.875 l 8.4375,0 0,7.5 0,7.5 -8.4375,0 c -7.8125009,0 -8.4375009,-0.138889 -8.4375009,-1.875 z M 84.229704,28.345735 C 82.686573,25.30373 79.949959,16.907384 80.36601,16.491334 c 0.226936,-0.226937 7.892403,-3.130485 17.034372,-6.452329 l 16.621738,-6.039716 1.86573,4.9865992 c 3.72875,9.9659708 4.97971,8.5395608 -13.27922,15.1416898 -8.913516,3.222983 -16.507961,5.859702 -16.876538,5.859375 -0.368577,-3.26e-4 -1.044652,-0.738874 -1.502388,-1.641218 z M 100.87963,20.70087 c 6.80615,-2.528894 12.57625,-4.799426 12.82246,-5.045625 0.80377,-0.803774 -0.79137,-5.495912 -2.02998,-5.9712108 -1.19674,-0.4592299 -24.609931,7.5960788 -25.985308,8.9402418 -0.828272,0.809475 1.010727,6.674584 2.09281,6.674584 0.398864,0 6.293877,-2.069095 13.100018,-4.59799 z"
     style="fill:#3dbac3"
     inkscape:connector-curvature="0" />
</svg>
