<?xml version="1.0" encoding="UTF-8" standalone="no"?>
<svg
   xmlns:dc="http://purl.org/dc/elements/1.1/"
   xmlns:cc="http://creativecommons.org/ns#"
   xmlns:rdf="http://www.w3.org/1999/02/22-rdf-syntax-ns#"
   xmlns:svg="http://www.w3.org/2000/svg"
   xmlns="http://www.w3.org/2000/svg"
   xmlns:sodipodi="http://sodipodi.sourceforge.net/DTD/sodipodi-0.dtd"
   xmlns:inkscape="http://www.inkscape.org/namespaces/inkscape"
   viewBox="0 0 120 120"
   height="120"
   width="120"
   version="1.1"
   id="svg3378"
   inkscape:version="0.91 r13725"
   sodipodi:docname="2.svg">
  <sodipodi:namedview
     pagecolor="#ffffff"
     bordercolor="#666666"
     borderopacity="1"
     objecttolerance="10"
     gridtolerance="10"
     guidetolerance="10"
     inkscape:pageopacity="0"
     inkscape:pageshadow="2"
     inkscape:window-width="1366"
     inkscape:window-height="715"
     id="namedview6"
     showgrid="false"
     inkscape:zoom="4.0688858"
     inkscape:cx="117.04403"
     inkscape:cy="30.088524"
     inkscape:window-x="272"
     inkscape:window-y="1072"
     inkscape:window-maximized="1"
     inkscape:current-layer="svg3378" />
  <metadata
     id="metadata3384">
    <rdf:RDF>
      <cc:Work
         rdf:about="">
        <dc:format>image/svg+xml</dc:format>
        <dc:type
           rdf:resource="http://purl.org/dc/dcmitype/StillImage" />
        <dc:title />
      </cc:Work>
    </rdf:RDF>
  </metadata>
  <defs
     id="defs3382" />
  <path
     id="path3388"
     d="m 23.45981,118.49462 c -4.95988,-2.61027 -7.09789,-6.17627 -7.09789,-11.83863 0,-5.9905 2.64248,-10.11579 7.99141,-12.475734 l 3.72734,-1.644499 0,-12.00708 0,-12.00708 -11.25,0 -11.2500005,0 0,-15.73515 0,-15.73515 4.9513605,-4.88985 4.95135,-4.88985 7.7049,0 7.70489,0 0,4.6875 c 0,4.375 0.15625,4.6875 2.34375,4.6875 2.27188,0 2.34271,-0.194052 2.30973,-6.328125 -0.0311,-5.786013 0.39053,-7.185048 4.92187,-16.331062 l 4.9559,-10.0029384 22.031251,0 22.03125,0 4.955897,10.0029384 c 4.531341,9.146014 4.952981,10.545049 4.921875,16.331062 -0.033,6.134073 0.03788,6.328125 2.309727,6.328125 2.1875,0 2.34375,-0.3125 2.34375,-4.6875 0,-3.541667 0.34375,-4.6875 1.40625,-4.6875 1.06251,0 1.40626,1.145833 1.40626,4.6875 0,4.375 0.15625,4.6875 2.34375,4.6875 2.32639,0 2.34375,-0.0625 2.34375,-8.4375 0,-6.875 0.26042,-8.4375 1.40625,-8.4375 1.20312,0 1.40625,2.708333 1.40625,18.75 0,16.041667 -0.20313,18.75 -1.40625,18.75 -1.14583,0 -1.40625,-1.5625 -1.40625,-8.4375 0,-8.375 -0.0173,-8.4375 -2.34375,-8.4375 l -2.34375,0 0,38.90625 c 0,33.958333 -0.17884,38.906253 -1.40626,38.906253 -1.20639,0 -1.40625,-2.86459 -1.40625,-20.156253 l 0,-20.15625 -36.562499,0 -36.562501,0 0,7.266638 0,7.266639 3.88434,1.873986 c 4.99399,2.409328 7.46688,5.78578 7.98864,10.90752 1.06658,10.46984 -10.07989,18.13889 -19.30634,13.28324 z m 12.68336,-5.34802 c 4.43477,-4.43478 4.43477,-8.87771 0,-13.312503 -2.47635,-2.47635 -3.9614,-3.1875 -6.65625,-3.1875 -4.90889,0 -9.84375,4.934863 -9.84375,9.843763 0,4.90888 4.93486,9.84374 9.84375,9.84374 2.69485,0 4.1799,-0.71115 6.65625,-3.1875 z m -9,-6.65624 c 0,-1.875 0.46875,-2.34375 2.34375,-2.34375 1.875,0 2.34375,0.46875 2.34375,2.34375 0,1.87499 -0.46875,2.34374 -2.34375,2.34374 -1.875,0 -2.34375,-0.46875 -2.34375,-2.34374 z m 76.875,-49.218763 0,-16.875 -2.34375,0 -2.343749,0 0,10.635949 c 0,8.950764 -0.259941,10.866244 -1.640625,12.089441 -7.344332,6.506622 -53.258026,6.55687 -60.430206,0.06613 -1.42592,-1.290436 -1.67917,-3.12371 -1.67917,-12.155571 l 0,-10.635949 -2.34375,0 -2.34375,0 0,16.875 0,16.875 36.562501,0 36.562499,0 0,-16.875 z m -75.9375,-9.375 0,-16.875 -5.35842,0 c -5.12697,0 -5.55217,0.190832 -9.84375,4.417882 -4.4114405,4.345106 -4.4853305,4.514988 -4.4853305,10.312501 l 0,5.894617 3.7500005,0 c 3.125,0 3.75,0.3125 3.75,1.875 0,1.5625 -0.625,1.875 -3.75,1.875 -2.7083305,0 -3.7500005,0.390625 -3.7500005,1.40625 0,1.015625 1.04167,1.40625 3.7500005,1.40625 3.125,0 3.75,0.3125 3.75,1.875 0,1.5625 -0.625,1.875 -3.75,1.875 -2.7083305,0 -3.7500005,0.390625 -3.7500005,1.40625 0,1.160714 1.7187495,1.40625 9.8437505,1.40625 l 9.84375,0 0,-16.875 z m 60.423474,14.645742 c 3.068849,-0.749376 6.127439,-2.111552 6.79688,-3.027056 0.791484,-1.082429 1.217147,-4.716566 1.217147,-10.39162 l 0,-8.727066 -29.0625,0 -29.062501,0 0,8.90625 c 0,11.082169 0.68761,11.976946 10.44321,13.589644 3.7953,0.627401 7.32242,1.304259 7.838041,1.50413 2.146869,0.832187 26.681302,-0.597097 31.829723,-1.854282 z m 8.014027,-31.171156 c 0,-4.564279 -0.663478,-6.522442 -4.921875,-14.526264 l -4.921875,-9.2508514 -19.21875,0 -19.218751,0 -4.92187,9.2508514 c -4.2584,8.003822 -4.92188,9.961985 -4.92188,14.526264 l 0,5.275414 29.062501,0 29.0625,0 0,-5.275414 z"
     style="fill:#3fbac3"
     inkscape:connector-curvature="0" />
</svg>
