<?xml version="1.0" encoding="UTF-8" standalone="no"?>
<svg
   xmlns:dc="http://purl.org/dc/elements/1.1/"
   xmlns:cc="http://creativecommons.org/ns#"
   xmlns:rdf="http://www.w3.org/1999/02/22-rdf-syntax-ns#"
   xmlns:svg="http://www.w3.org/2000/svg"
   xmlns="http://www.w3.org/2000/svg"
   xmlns:sodipodi="http://sodipodi.sourceforge.net/DTD/sodipodi-0.dtd"
   xmlns:inkscape="http://www.inkscape.org/namespaces/inkscape"
   viewBox="0 0 120 120"
   height="120"
   width="120"
   version="1.1"
   id="svg3390"
   inkscape:version="0.91 r13725"
   sodipodi:docname="3.svg">
  <sodipodi:namedview
     pagecolor="#ffffff"
     bordercolor="#666666"
     borderopacity="1"
     objecttolerance="10"
     gridtolerance="10"
     guidetolerance="10"
     inkscape:pageopacity="0"
     inkscape:pageshadow="2"
     inkscape:window-width="1366"
     inkscape:window-height="715"
     id="namedview6"
     showgrid="false"
     inkscape:zoom="2.8711785"
     inkscape:cx="80.888297"
     inkscape:cy="56.663521"
     inkscape:window-x="272"
     inkscape:window-y="1072"
     inkscape:window-maximized="1"
     inkscape:current-layer="svg3390" />
  <metadata
     id="metadata3396">
    <rdf:RDF>
      <cc:Work
         rdf:about="">
        <dc:format>image/svg+xml</dc:format>
        <dc:type
           rdf:resource="http://purl.org/dc/dcmitype/StillImage" />
        <dc:title />
      </cc:Work>
    </rdf:RDF>
  </metadata>
  <defs
     id="defs3394" />
  <path
     id="path3400"
     d="m 56.253238,108.28125 c 0,-11.093752 -0.1,-11.718755 -1.875,-11.718755 -1.78459,0 -1.875,-0.625003 -1.875,-12.961581 0,-12.452304 -0.088,-13.044238 -2.2393,-15.065292 -1.70479,-1.601562 -2.5106,-3.847675 -3.37587,-9.409902 -1.07803,-6.92988 -1.29833,-7.383332 -4.27731,-8.803908 -5.2327,-2.495301 -6.32917,-5.181361 -6.80227,-16.663766 l -0.4211,-10.220551 -9.72333,0 c -8.01795,0 -9.72332,0.246641 -9.72332,1.40625 0,0.78125 -0.83334,1.40625 -1.875,1.40625 -1.72794,0 -1.875,-0.625 -1.875,-7.96875 0,-7.34375 0.14706,-7.96875 1.875,-7.96875 1.04166,0 1.875,0.625 1.875,1.406249 0,1.16304 1.74799,1.40625 10.10696,1.40625 l 10.10697,0 1.04408,-2.766106 c 0.57425,-1.5213585 2.45971,-3.6291565 4.18991,-4.6839953 2.86166,-1.7446403 4.67019,-1.9178889 20.02083,-1.9178889 18.84038,0 21.468158,0.7079737 24.019232,6.4712472 l 1.282223,2.896743 9.146144,0 c 7.504913,0 9.146143,-0.252346 9.146143,-1.40625 0,-0.781249 0.83333,-1.406249 1.875,-1.406249 1.72794,0 1.875,0.625 1.875,7.96875 0,7.34375 -0.14706,7.96875 -1.875,7.96875 -1.04167,0 -1.875,-0.625 -1.875,-1.40625 0,-1.15625 -1.66667,-1.40625 -9.374996,-1.40625 l -9.375,0 0,10.65482 c 0,11.790024 -0.939703,14.203641 -6.412556,16.47057 -2.4994,1.035287 -2.8222,1.728004 -3.88173,8.330025 -1.33453,8.315595 -2.11321,10.128005 -4.70472,10.950519 -1.75807,0.557991 -1.87599,1.416476 -1.87599,13.657242 0,12.436821 -0.0897,13.061824 -1.875,13.061824 -1.775,0 -1.875,0.625003 -1.875,11.718755 l 0,11.71875 -4.6875,0 -4.6875,0 0,-11.71875 z m 5.625,6.5625 c 0,-0.77344 -0.42188,-1.40625 -0.9375,-1.40625 -0.51563,0 -0.9375,0.63281 -0.9375,1.40625 0,0.77344 0.42187,1.40625 0.9375,1.40625 0.51562,0 0.9375,-0.63281 0.9375,-1.40625 z m 0,-11.71875 c 0,-3.750005 -0.40179,-6.562505 -0.9375,-6.562505 -0.53572,0 -0.9375,2.8125 -0.9375,6.562505 0,3.75 0.40178,6.5625 0.9375,6.5625 0.53571,0 0.9375,-2.8125 0.9375,-6.5625 z m 3.75,-11.718755 c 0,-1.0625 -1.14584,-1.40625 -4.6875,-1.40625 -3.54167,0 -4.6875,0.34375 -4.6875,1.40625 0,1.0625 1.14583,1.40625 4.6875,1.40625 3.54166,0 4.6875,-0.34375 4.6875,-1.40625 z m 0,-6.5625 c 0,-1.0625 -1.14584,-1.40625 -4.6875,-1.40625 -3.54167,0 -4.6875,0.34375 -4.6875,1.40625 0,1.0625 1.14583,1.40625 4.6875,1.40625 3.54166,0 4.6875,-0.34375 4.6875,-1.40625 z m 0,-6.5625 c 0,-1.0625 -1.14584,-1.40625 -4.6875,-1.40625 -3.54167,0 -4.6875,0.34375 -4.6875,1.40625 0,1.0625 1.14583,1.40625 4.6875,1.40625 3.54166,0 4.6875,-0.34375 4.6875,-1.40625 z m 0,-6.5625 c 0,-1.0625 -1.14584,-1.40625 -4.6875,-1.40625 -3.54167,0 -4.6875,0.34375 -4.6875,1.40625 0,1.0625 1.14583,1.40625 4.6875,1.40625 3.54166,0 4.6875,-0.34375 4.6875,-1.40625 z m 5.6987,-8.150049 c 0.37029,-1.388778 0.96665,-4.658309 1.32525,-7.265625 l 0.65199,-4.740576 -11.80672,0 c -9.13773,0 -11.80672,0.27897 -11.80672,1.23407 0,1.865688 1.99112,12.255259 2.50977,13.09584 0.24982,0.404888 4.50398,0.615826 9.4537,0.46875 8.88929,-0.264135 9.00773,-0.298328 9.67273,-2.792459 z m 8.70612,-17.699245 2.470176,-1.943043 0,-16.270163 0,-16.270163 -2.470176,-1.9430432 C 77.750128,7.647288 76.332738,7.499995 61.335328,7.499995 c -15.80252,0 -16.29643,0.059259 -18.85794,2.2625778 l -2.6304,2.2625772 0,15.631095 0,15.631094 2.6304,2.262578 c 2.56151,2.203319 3.05542,2.262578 18.85794,2.262578 14.99741,0 16.4148,-0.147293 18.69773,-1.943044 z m -23.77982,-5.556956 c 0,-1.625 0.625,-1.875 4.6875,-1.875 4.0625,0 4.6875,0.25 4.6875,1.875 0,1.625 -0.625,1.875 -4.6875,1.875 -4.0625,0 -4.6875,-0.25 -4.6875,-1.875 z m 0,-6.5625 c 0,-1.625 0.625,-1.875 4.6875,-1.875 4.0625,0 4.6875,0.25 4.6875,1.875 0,1.625 -0.625,1.875 -4.6875,1.875 -4.0625,0 -4.6875,-0.25 -4.6875,-1.875 z m -20.625,-15.46875 c 0,-1.160714 -1.71875,-1.40625 -9.84375,-1.40625 -8.125,0 -9.84375,0.245536 -9.84375,1.40625 0,1.160714 1.71875,1.40625 9.84375,1.40625 8.125,0 9.84375,-0.245536 9.84375,-1.40625 z m 69.374992,0 c 0,-1.15625 -1.66667,-1.40625 -9.374996,-1.40625 -7.708333,0 -9.375,0.25 -9.375,1.40625 0,1.15625 1.666667,1.40625 9.375,1.40625 7.708326,0 9.374996,-0.25 9.374996,-1.40625 z"
     style="fill:#3ebac3"
     inkscape:connector-curvature="0" />
</svg>
