<?xml version="1.0" encoding="UTF-8" standalone="no"?>
<svg
   xmlns:dc="http://purl.org/dc/elements/1.1/"
   xmlns:cc="http://creativecommons.org/ns#"
   xmlns:rdf="http://www.w3.org/1999/02/22-rdf-syntax-ns#"
   xmlns:svg="http://www.w3.org/2000/svg"
   xmlns="http://www.w3.org/2000/svg"
   xmlns:sodipodi="http://sodipodi.sourceforge.net/DTD/sodipodi-0.dtd"
   xmlns:inkscape="http://www.inkscape.org/namespaces/inkscape"
   viewBox="0 0 120 120"
   height="120"
   width="120"
   version="1.1"
   id="svg2"
   inkscape:version="0.91 r13725"
   sodipodi:docname="4.svg">
  <sodipodi:namedview
     pagecolor="#ffffff"
     bordercolor="#666666"
     borderopacity="1"
     objecttolerance="10"
     gridtolerance="10"
     guidetolerance="10"
     inkscape:pageopacity="0"
     inkscape:pageshadow="2"
     inkscape:window-width="1366"
     inkscape:window-height="715"
     id="namedview6"
     showgrid="false"
     inkscape:zoom="4.070349"
     inkscape:cx="122.00343"
     inkscape:cy="98.581137"
     inkscape:window-x="272"
     inkscape:window-y="1072"
     inkscape:window-maximized="1"
     inkscape:current-layer="svg2" />
  <metadata
     id="metadata8">
    <rdf:RDF>
      <cc:Work
         rdf:about="">
        <dc:format>image/svg+xml</dc:format>
        <dc:type
           rdf:resource="http://purl.org/dc/dcmitype/StillImage" />
        <dc:title />
      </cc:Work>
    </rdf:RDF>
  </metadata>
  <defs
     id="defs6" />
  <path
     id="path3338"
     d="m 53.996683,118.9836 c -3.47273,-1.60756 -6.58636,-4.91516 -7.9063,-8.3989 -0.58373,-1.54062 -0.99995,-10.24096 -0.99995,-20.901991 0,-24.64511 1.85774,-22.865106 -23.86364,-22.865106 l -19.2613596,0 0,-31.40625 0,-31.4062502 58.1249976,0 58.124999,0 0,31.4062502 0,31.40625 -19.114889,0 c -17.41351,0 -19.311886,0.159302 -21.328125,1.78975 -2.172838,1.757084 -2.22179,2.158006 -2.681984,21.9659 -0.511538,22.017837 -0.657322,22.601767 -6.784966,27.176717 -3.106659,2.31945 -10.572622,2.96313 -14.308782,1.23363 z m 13.974954,-6.1746 2.900044,-2.89764 0.46875,-20.125007 0.46875,-20.124999 3.062706,-3.062501 3.062705,-3.0625 18.265423,-0.290087 18.265415,-0.290087 0,-8.850538 0,-8.850538 -54.374999,0 -54.3749976,0 0,8.850538 0,8.850538 18.2654196,0.290087 18.26542,0.290087 3.0627,3.0625 3.06271,3.062501 0.46875,20.067689 c 0.46271,19.809317 0.49892,20.100127 2.8125,22.586907 3.13717,3.37203 5.3824,4.24158 9.756204,3.77848 2.507377,-0.26549 4.577083,-1.30165 6.5625,-3.28543 z m -10.329454,-6.08188 c -0.93343,-2.43251 0.37489,-4.443 2.678431,-4.1159 1.549439,0.22002 2.113568,0.9257 2.113568,2.64389 0,1.71818 -0.564129,2.42386 -2.113568,2.64388 -1.267761,0.18002 -2.33961,-0.28894 -2.678431,-1.17187 z m 56.823247,-82.097017 0,-16.8750002 -54.374998,0 -54.3749986,0 0,16.8750002 0,16.875 54.3749986,0 54.374998,0 0,-16.875 z M 91.262306,37.134215 c -0.644531,-0.260074 -1.171875,-0.877 -1.171875,-1.370947 0,-0.493947 4.04235,-6.127609 8.983003,-12.519248 5.973326,-7.727591 9.428436,-11.450233 10.312496,-11.110987 0.73123,0.280596 1.3295,0.904333 1.3295,1.386084 0,0.719607 -17.807531,24.400701 -18.169139,24.161973 -0.06166,-0.04071 -0.639454,-0.286801 -1.283985,-0.546875 z m -3.75,-11.25 c -1.911242,-0.771203 -1.41367,-1.924184 3.563608,-8.25765 3.09162,-3.934007 5.206986,-5.844855 6.093748,-5.504573 0.747047,0.286669 1.35827,0.907012 1.35827,1.37854 0,0.740194 -9.290727,13.131621 -9.694952,12.930558 -0.08184,-0.04071 -0.676142,-0.286801 -1.320673,-0.546875 z"
     style="fill:#3ebac3"
     inkscape:connector-curvature="0" />
</svg>
